<svg width="872px" height="837px" viewbox="0 0 872 837" xmlns="http://www.w3.org/2000/svg"><g fill-rule="nonzero" fill="none"><path d="M370 622.666c0-11.413-9.252-20.666-20.666-20.666h-3.668C334.252 602 325 611.252 325 622.666v87.668c0 11.413 9.252 20.666 20.666 20.666h3.668c11.413 0 20.666-9.252 20.666-20.666v-87.668zM547 622.666c0-11.413-9.252-20.666-20.666-20.666h-3.668C511.252 602 502 611.252 502 622.666v87.668c0 11.413 9.252 20.666 20.666 20.666h3.668c11.413 0 20.666-9.252 20.666-20.666v-87.668z" fill="#000"/><path d="M837.522 269.673c-22.051-48.06-54.255-94.309-93.129-133.748C703.54 94.48 657.055 61.61 606.226 38.228 551.366 12.992 494.15.196 436.167.196c-57.982 0-115.199 12.796-170.059 38.032-50.829 23.382-97.315 56.252-138.167 97.697-38.874 39.439-71.078 85.688-93.129 133.748C12.285 318.77.378 369.786.378 417.207c0 58.681 17.744 110.203 52.739 153.138 29.741 36.489 71.441 66.135 124.074 88.263-.34 29.043 6.09 66.311 32.854 100.121 41.011 51.807 116.125 78.075 223.253 78.075 109.184 0 185.532-26.51 226.919-78.794 26.288-33.209 32.871-69.752 32.72-98.471 53.716-22.24 96.181-52.235 126.341-89.268 34.955-42.92 52.679-94.418 52.679-153.063 0-47.422-11.907-98.438-34.435-147.535zm4.435 147.534c0 13.671-1.098 26.885-3.262 39.627-65.917-29.97-111.757-96.382-111.757-173.513 0-34.275 9.064-66.426 24.907-94.212 56.973 69.842 90.112 152.654 90.112 228.098zM435.932 92.798c105.223 0 190.523 85.3 190.523 190.523s-85.3 190.523-190.523 190.523-190.523-85.3-190.523-190.523 85.3-190.523 190.523-190.523zm-314.069 94.637c16.441 28.165 25.873 60.921 25.873 95.886 0 77.976-46.85 144.997-113.931 174.484-2.276-13.041-3.428-26.58-3.428-40.598.001-76.048 33.673-159.581 91.486-229.772zM636.695 739.39c-15.888 20.071-38.958 35.923-68.569 47.115-35.635 13.47-80.997 20.299-134.828 20.299-52.693 0-97.153-6.748-132.145-20.056-29.113-11.072-51.853-26.765-67.586-46.64-34.365-43.412-27.054-94.834-22.316-114.928 5.813-24.65 31.835-42.729 77.344-53.73 36.357-8.79 82.902-12.884 146.479-12.884 63.577 0 110.121 4.094 146.478 12.884 45.509 11.002 71.531 29.08 77.345 53.731 4.707 19.961 11.966 71.047-22.202 114.209z" fill="#0B812C"/></g></svg>